<svg id="Layer_1" height="512" viewBox="0 0 512 512" width="512" xmlns="http://www.w3.org/2000/svg" data-name="Layer 1"><path d="m89.23 501a56.9 56.9 0 0 0 15-2.012 56.874 56.874 0 0 1 -41.89-54.878v-256.67a56.9 56.9 0 0 1 41.889-54.877 56.89 56.89 0 0 0 -71.889 54.877v256.67a56.881 56.881 0 0 0 56.89 56.89z" fill="#d4e1f4"/><g fill="#1ae5be"><path d="m213.609 295.4h-.321a20.027 20.027 0 0 0 0 40.054h.321a20.027 20.027 0 1 0 0-40.054zm0 28.054h-.321a8.027 8.027 0 0 1 0-16.054h.321a8.027 8.027 0 1 1 0 16.054z"/><path d="m275.115 295.4h-.322a20.027 20.027 0 0 0 0 40.054h.322a20.027 20.027 0 1 0 0-40.054zm0 28.054h-.322a8.027 8.027 0 0 1 0-16.054h.322a8.027 8.027 0 1 1 0 16.054z"/><path d="m336.621 295.4h-.321a20.027 20.027 0 0 0 0 40.054h.322a20.027 20.027 0 1 0 0-40.054zm0 28.054h-.321a8.027 8.027 0 0 1 0-16.054h.322a8.027 8.027 0 1 1 0 16.054z"/><path d="m213.609 356.262h-.321a20.027 20.027 0 1 0 0 40.054h.321a20.027 20.027 0 1 0 0-40.054zm0 28.054h-.321a8.027 8.027 0 0 1 0-16.054h.321a8.027 8.027 0 1 1 0 16.054z"/><path d="m275.115 356.262h-.322a20.027 20.027 0 0 0 0 40.054h.322a20.027 20.027 0 1 0 0-40.054zm0 28.054h-.322a8.027 8.027 0 0 1 0-16.054h.322a8.027 8.027 0 1 1 0 16.054z"/><path d="m336.621 356.262h-.321a20.027 20.027 0 1 0 0 40.054h.322a20.027 20.027 0 1 0 0-40.054zm0 28.054h-.321a8.027 8.027 0 0 1 0-16.054h.322a8.027 8.027 0 1 1 0 16.054z"/><path d="m213.609 417.124h-.321a20.027 20.027 0 0 0 0 40.054h.321a20.027 20.027 0 1 0 0-40.054zm0 28.054h-.321a8.027 8.027 0 0 1 0-16.054h.321a8.027 8.027 0 1 1 0 16.054z"/><path d="m275.115 417.124h-.322a20.027 20.027 0 0 0 0 40.054h.322a20.027 20.027 0 1 0 0-40.054zm0 28.054h-.322a8.027 8.027 0 0 1 0-16.054h.322a8.027 8.027 0 1 1 0 16.054z"/><path d="m336.621 417.124h-.321a20.027 20.027 0 1 0 0 40.054h.322a20.027 20.027 0 1 0 0-40.054zm0 28.054h-.321a8.027 8.027 0 1 1 0-16.054h.322a8.027 8.027 0 1 1 0 16.054z"/><path d="m461.754 186.475h-32.554l.613-175a6.021 6.021 0 0 0 -3.673-5.558 6.215 6.215 0 0 0 -2.442-.463l-165.377-.454h-.016a6 6 0 0 0 -4.014 1.54l-58.684 52.8a6 6 0 0 0 -1.986 4.438l-.463 122.694h-48.1v12h48.056l-.013 3.68a6.016 6.016 0 0 0 3.68 5.563 6.223 6.223 0 0 0 2.451.46h154.768a6 6 0 0 0 0-12h-148.879l.479-126.204 52.536.144h.012a6 6 0 0 0 6-5.983l.129-47.116 153.512.42-.626 178.742h-23.163a6 6 0 0 0 0 12h29.145a6 6 0 0 0 6-5.979l.012-3.724h32.6a11.92 11.92 0 0 1 11.907 11.906v258.392a11.921 11.921 0 0 1 -11.907 11.907h-333.697l-3 12h336.694a23.933 23.933 0 0 0 23.907-23.907v-258.392a23.933 23.933 0 0 0 -23.907-23.906zm-246.71-128.475 37.215-33.486-.092 33.586z"/><path d="m429.98 232.254a6 6 0 0 0 -6-6h-224.88a6 6 0 0 0 -6 6v44.767a6 6 0 0 0 6 6h224.88a6 6 0 0 0 6-6zm-12 38.767h-212.88v-32.767h212.88z"/><path d="m236.021 104.675h85.7a6 6 0 0 0 0-12h-85.7a6 6 0 0 0 0 12z"/><path d="m387.058 104.675a6 6 0 0 0 0-12h-47.609a6 6 0 0 0 0 12z"/><path d="m236.021 133.24h28.565a6 6 0 0 0 0-12h-28.565a6 6 0 1 0 0 12z"/><path d="m393.058 127.24a6 6 0 0 0 -6-6h-104.739a6 6 0 1 0 0 12h104.739a6 6 0 0 0 6-6z"/><path d="m236.021 171.327h57.13a6 6 0 0 0 0-12h-57.13a6 6 0 1 0 0 12z"/><path d="m310.885 171.327h76.173a6 6 0 0 0 0-12h-76.173a6 6 0 0 0 0 12z"/><path d="m423.98 301.935h-28.565a6 6 0 0 0 0 12h28.565a6 6 0 0 0 0-12z"/><path d="m423.98 330.5h-28.565a6 6 0 1 0 0 12h28.565a6 6 0 0 0 0-12z"/><path d="m423.98 359.065h-28.565a6 6 0 0 0 0 12h28.565a6 6 0 0 0 0-12z"/><path d="m423.98 416.613h-28.565a6 6 0 0 0 -6 6v28.565a6 6 0 0 0 6 6h28.565a6 6 0 0 0 6-6v-28.565a6 6 0 0 0 -6-6zm-6 28.565h-16.565v-16.565h16.565z"/></g><path d="m65.259 229.92a6 6 0 0 0 -12 0v3.053a6 6 0 0 0 12 0z" fill="#0635c9"/><path d="m59.259 243.985a6 6 0 0 0 -6 6v103.383a6 6 0 0 0 12 0v-103.383a6 6 0 0 0 -6-6z" fill="#0635c9"/><path d="m88.251 506.992a62.958 62.958 0 0 0 63.866-62.881v-161.172a6 6 0 0 0 -12 0v108.772h-101.778v-203.421c0-27.866 22.046-51.206 49.906-51.734a50.944 50.944 0 0 1 51.872 50.88v55.5a6 6 0 0 0 12 0v-54.545c0-32.817-24.785-60.449-56.888-63.538v-23.585a6 6 0 0 0 -12 0v23.573a62.969 62.969 0 0 0 -56.89 62.6v255.72c0 34.506 27.404 63.305 61.912 63.831zm51.866-103.281v19.055h-101.778v-19.055zm-101.778 31.055h101.778v8.49c0 27.866-22.046 51.206-49.906 51.735a50.945 50.945 0 0 1 -51.872-50.88z" fill="#0635c9"/></svg>