<svg id="Layer_1" height="512" viewBox="0 0 512 512" width="512" xmlns="http://www.w3.org/2000/svg" data-name="Layer 1"><path d="m166.55 455.421v-399.841a45.586 45.586 0 0 1 45.59-45.58h-30a45.586 45.586 0 0 0 -45.59 45.58v399.841a45.586 45.586 0 0 0 45.59 45.579h30a45.586 45.586 0 0 1 -45.59-45.579z" fill="#d4e1f4"/><path d="m364.461 5h-182.326a51.639 51.639 0 0 0 -51.581 51.581v221.8h12v-193.009h186.581a6 6 0 0 0 0-12h-186.581v-16.791a39.626 39.626 0 0 1 39.581-39.581h182.326a39.626 39.626 0 0 1 39.581 39.581v16.791h-16.79a6 6 0 0 0 0 12h16.79v22.393h12v-51.184a51.639 51.639 0 0 0 -51.581-51.581z" fill="#0635c9"/><path d="m404.042 412.953h-261.488v-16.453h-12v58.917a51.639 51.639 0 0 0 51.581 51.583h182.326a51.639 51.639 0 0 0 51.581-51.581v-229.534h-12zm-39.581 82.047h-182.326a39.626 39.626 0 0 1 -39.581-39.581v-30.466h261.488v30.466a39.626 39.626 0 0 1 -39.581 39.581z" fill="#0635c9"/><path d="m364.244 85.372a6 6 0 0 0 0-12h-12.666a6 6 0 0 0 0 12z" fill="#0635c9"/><path d="m273.3 436.883a23.094 23.094 0 1 0 23.093 23.094 23.119 23.119 0 0 0 -23.093-23.094zm0 34.187a11.094 11.094 0 1 1 11.093-11.093 11.106 11.106 0 0 1 -11.093 11.093z" fill="#0635c9"/><g fill="#1ae5be"><path d="m364.251 316.5a30 30 0 1 0 -30 30 30.034 30.034 0 0 0 30-30zm-48 0a18 18 0 1 1 18 18 18.021 18.021 0 0 1 -18-18z"/><path d="m334.251 350.5a46.052 46.052 0 0 0 -46 46 6 6 0 0 0 6 6h80a6 6 0 0 0 6-6 46.052 46.052 0 0 0 -46-46zm-33.47 40a34 34 0 0 1 66.94 0z"/><path d="m199.749 175.885a30 30 0 1 0 -30-30 30.034 30.034 0 0 0 30 30zm0-48a18 18 0 1 1 -18 18 18.021 18.021 0 0 1 18-18z"/><path d="m159.749 231.885h80a6 6 0 0 0 6-6 46 46 0 0 0 -92 0 6 6 0 0 0 6 6zm40-40a34.057 34.057 0 0 1 33.47 28h-66.94a34.057 34.057 0 0 1 33.47-28z"/><path d="m262.277 348.948a28.373 28.373 0 0 0 -4.835-.7c-11.413-1.067-17.208-3.325-17.208-12.712v-42.717a20.46 20.46 0 0 0 -20.434-20.437h-144.364a20.46 20.46 0 0 0 -20.436 20.437v89.246a20.46 20.46 0 0 0 20.436 20.435h144.364a20.46 20.46 0 0 0 20.436-20.437v-5.083c18.568-3.645 24.745-15.959 26.109-19.33a6.061 6.061 0 0 0 .592-3.612 6.189 6.189 0 0 0 -4.66-5.09zm-25.062 16.389a10.946 10.946 0 0 0 -8.981 10.853v5.875a8.446 8.446 0 0 1 -8.434 8.435h-144.364a8.446 8.446 0 0 1 -8.436-8.435v-89.246a8.446 8.446 0 0 1 8.437-8.437h144.363a8.446 8.446 0 0 1 8.436 8.437v42.716c0 17.632 13.067 22.376 22.225 23.935a27.013 27.013 0 0 1 -13.246 5.867z"/><path d="m436.564 101.765h-144.364a20.46 20.46 0 0 0 -20.434 20.435v42.717c0 9.385-5.8 11.644-17.208 12.711a28.473 28.473 0 0 0 -4.835.7 6.189 6.189 0 0 0 -4.658 5.091 6.059 6.059 0 0 0 .592 3.611c1.364 3.371 7.541 15.685 26.109 19.33v5.085a20.46 20.46 0 0 0 20.434 20.44h144.364a20.46 20.46 0 0 0 20.436-20.437v-89.248a20.46 20.46 0 0 0 -20.436-20.435zm8.436 109.683a8.446 8.446 0 0 1 -8.437 8.437h-144.363a8.446 8.446 0 0 1 -8.436-8.437v-5.875a10.945 10.945 0 0 0 -8.981-10.853 27.049 27.049 0 0 1 -13.249-5.865c9.158-1.559 22.23-6.3 22.23-23.936v-42.719a8.446 8.446 0 0 1 8.436-8.437h144.364a8.446 8.446 0 0 1 8.436 8.437z"/><path d="m417 195.885h-72.346a6 6 0 0 0 0 12h72.346a6 6 0 0 0 0-12z"/><path d="m321.22 195.885h-10.22a6 6 0 0 0 0 12h10.22a6 6 0 0 0 0-12z"/><path d="m417 162.97h-10.764a6 6 0 0 0 0 12h10.764a6 6 0 0 0 0-12z"/><path d="m311 174.97h71.343a6 6 0 0 0 0-12h-71.343a6 6 0 0 0 0 12z"/><path d="m417 130.056h-60.04a6 6 0 0 0 0 12h60.04a6 6 0 0 0 0-12z"/><path d="m311 142.056h22.684a6 6 0 0 0 0-12h-22.684a6 6 0 0 0 0 12z"/><path d="m201 364.356h-72.349a6 6 0 0 0 0 12h72.349a6 6 0 1 0 0-12z"/><path d="m105.217 364.356h-10.217a6 6 0 0 0 0 12h10.218a6 6 0 0 0 0-12z"/><path d="m201 331.442h-10.766a6 6 0 0 0 0 12h10.766a6 6 0 1 0 0-12z"/><path d="m95 343.442h71.342a6 6 0 0 0 0-12h-71.342a6 6 0 0 0 0 12z"/><path d="m201 298.528h-60.042a6 6 0 1 0 0 12h60.042a6 6 0 1 0 0-12z"/><path d="m95 310.528h22.683a6 6 0 1 0 0-12h-22.683a6 6 0 0 0 0 12z"/></g></svg>