<svg height="491pt" viewBox="1 -32 491.99812 491" width="491pt" xmlns="http://www.w3.org/2000/svg"><path d="m53.816406 316.183594c-25.777344-31.558594-40.4375-70.730469-41.710937-111.453125h70.484375c.546875 27.882812 4.898437 54.070312 12.683594 77.84375-15.273438 9.28125-29.21875 20.585937-41.457032 33.609375zm0 0" fill="#d4e1f4"/><path d="m53.816406 81.285156c12.238282 13.019532 26.1875 24.324219 41.460938 33.601563-7.785156 23.773437-12.140625 49.957031-12.6875 77.839843h-70.484375c1.277343-40.722656 15.933593-79.886718 41.710937-111.441406zm0 0" fill="#d4e1f4"/><path d="m166.621094 15.195312c-30.007813 20.96875-52.9375 51.320313-67.21875 88.15625-13.875-8.683593-26.542969-19.160156-37.675782-31.160156 27.757813-30.003906 64.621094-50.03125 104.894532-56.996094zm0 0" fill="#d4e1f4"/><path d="m61.726562 325.277344c11.128907-12 23.796876-22.476563 37.671876-31.160156 14.277343 36.828124 37.207031 67.179687 67.203124 88.152343-40.265624-6.96875-77.121093-26.996093-104.875-56.992187zm0 0" fill="#d4e1f4"/><path d="m273.746094 375.671875c-1.207032-3.085937-4.683594-4.609375-7.773438-3.40625-11.679687 4.566406-23.796875 7.925781-36.15625 10.035156 9.757813-6.828125 18.789063-14.644531 26.945313-23.320312 1.476562-1.558594 2.007812-3.785157 1.390625-5.84375-.613282-2.054688-2.28125-3.628907-4.371094-4.121094s-4.285156.171875-5.753906 1.738281c-12.597656 13.417969-27.414063 24.5625-43.796875 32.949219v-117.820313c12.308593.324219 24.550781 1.882813 36.546875 4.652344 2.101562.519532 4.320312-.136718 5.804687-1.710937 1.484375-1.578125 2.003907-3.828125 1.359375-5.898438-.640625-2.066406-2.347656-3.625-4.464844-4.082031-12.882812-2.96875-26.03125-4.628906-39.25-4.953125v-49.160156h81.722657c3.3125 0 6-2.6875 6-6 0-3.316407-2.6875-6-6-6h-81.722657v-49.152344c30.089844-.726563 59.605469-8.386719 86.25-22.382813 6.472657 20.867188 10.222657 42.484376 11.15625 64.3125.148438 3.199219 2.785157 5.71875 5.988282 5.722657.09375 0 .1875 0 .285156-.007813 3.308594-.152344 5.867188-2.960937 5.714844-6.273437-1.015625-23.71875-5.214844-47.195313-12.488282-69.796875 15.367188-9.347656 29.371094-20.765625 41.621094-33.933594 22.234375 27.246094 36.242188 60.265625 40.386719 95.1875.390625 3.292969 3.378906 5.640625 6.667969 5.246094 3.289062-.390625 5.640625-3.378906 5.246094-6.667969-11.648438-97.539063-93.238282-171.546875-190.992188-174.390625-.53125-.085938-1.070312-.101562-1.601562-.046875-1.40625-.027344-2.816407-.046875-4.230469-.046875-1.414063 0-2.800781.023438-4.191407.050781-.542968-.058593-1.089843-.046875-1.632812.039063-54.683594 1.597656-106.265625 25.765625-142.484375 66.765625-.101563.078125-.199219.15625-.300781.238281-.480469.421875-.890625.921875-1.214844 1.472656-64.542969 74.398438-64.542969 184.933594 0 259.332032.324219.554687.734375 1.050781 1.21875 1.476562.078125.070312.171875.117188.253906.183594 36.210938 41.019531 87.796875 65.210937 142.492188 66.816406.332031.0625.667968.09375 1.007812.101562.253906-.003906.503906-.019531.757813-.054687 1.363281.027344 2.726562.050781 4.097656.050781 1.390625 0 2.777344-.019531 4.164063-.046875.570312.078125 1.148437.0625 1.710937-.046875 22.6875-.628906 45.09375-5.171875 66.234375-13.429687 3.089844-1.207031 4.613281-4.691407 3.402344-7.777344zm-81.511719 8.027344c-37.789063-19.316407-66.136719-52.878907-82.308594-95.679688 25.355469-13.644531 53.53125-21.207031 82.308594-22.101562zm0-129.789063c-30.109375.875-59.617187 8.609375-86.28125 22.621094-7.1875-23.269531-11.011719-47.445312-11.363281-71.800781h97.644531zm-138.417969 62.273438c-25.777344-31.558594-40.4375-70.730469-41.710937-111.453125h70.484375c.546875 27.882812 4.898437 54.070312 12.683594 77.84375-15.273438 9.28125-29.21875 20.585937-41.457032 33.609375zm0-234.902344c12.238282 13.023438 26.1875 24.324219 41.460938 33.601562-7.785156 23.773438-12.140625 49.957032-12.6875 77.84375h-70.484375c1.277343-40.722656 15.933593-79.890624 41.710937-111.441406zm40.773438 111.449219c.351562-24.355469 4.179687-48.53125 11.367187-71.800781 26.660157 14.011718 56.167969 21.75 86.277344 22.621093v49.179688zm97.644531-61.1875c-28.777344-.890625-56.953125-8.457031-82.308594-22.097657 16.175781-42.800781 44.519531-76.359374 82.308594-95.675781zm12 .03125v-117.777344c28.597656 14.601563 51.699219 37.007813 68.664063 66.710937 5.3125 9.347657 9.871093 19.109376 13.632812 29.183594-25.339844 13.640625-53.53125 21.136719-82.296875 21.886719zm130.609375-59.457031c-11.136719 12.140624-23.855469 22.726562-37.8125 31.476562-3.835938-10.011719-8.421875-19.71875-13.714844-29.042969-13.25-23.507812-31.546875-43.789062-53.574218-59.382812 40.339843 6.925781 77.273437 26.941406 105.101562 56.953125zm-168.222656-56.921876c-30.007813 20.96875-52.9375 51.320313-67.21875 88.15625-13.875-8.683593-26.542969-19.160156-37.675782-31.160156 27.757813-30.003906 64.621094-50.03125 104.894532-56.996094zm-104.894532 310.082032c11.128907-12 23.796876-22.476563 37.671876-31.160156 14.277343 36.828124 37.207031 67.179687 67.203124 88.152343-40.265624-6.96875-77.121093-26.996093-104.875-56.992187zm0 0" fill="#0635c9"/><g fill="#1ae5be"><path d="m361.976562 166.714844c-71.808593 0-130.023437 58.210937-130.023437 130.023437 0 71.808594 58.210937 130.023438 130.023437 130.023438 71.808594 0 130.023438-58.214844 130.023438-130.027344-.070312-71.777344-58.242188-129.953125-130.023438-130.019531zm0 248.046875c-65.183593 0-118.023437-52.839844-118.023437-118.023438 0-65.183593 52.839844-118.023437 118.019531-118.023437 65.183594 0 118.023438 52.839844 118.027344 118.019531-.074219 65.152344-52.871094 117.953125-118.023438 118.027344zm0 0"/><path d="m358.375 191.9375c-26.226562 19.664062-54.695312 36.148438-84.808594 49.105469l-.570312.246093c-2.203125.945313-3.628906 3.113282-3.628906 5.511719v50.242188c0 32.578125 15.566406 61.1875 45.011718 82.738281 13.511719 9.867188 28.5 17.535156 44.410156 22.714844 1.082032.316406 2.230469.320312 3.316407.015625 16.371093-5.144531 31.851562-12.792969 45.886719-22.671875 30.480468-21.546875 46.589843-50.179688 46.589843-82.796875v-50.242188c0-2.398437-1.425781-4.5625-3.625-5.511719l-.574219-.246093c-30.109374-12.957031-58.578124-29.441407-84.808593-49.105469-2.132813-1.601562-5.066407-1.601562-7.199219 0zm84.207031 105.097656c.097657 13.097656-3.027343 26.015625-9.101562 37.621094-1.855469-.925781-4.0625-.824219-5.828125.269531-1.761719 1.09375-2.835938 3.023438-2.832032 5.101563v5.296875c0 .722656.132813 1.441406.390626 2.117187-6.820313 8.59375-14.867188 16.144532-23.875 22.40625-12.550782 8.792969-26.304688 15.730469-40.835938 20.597656-13.9375-4.835937-27.089844-11.6875-39.039062-20.34375-8.683594-6.226562-16.417969-13.675781-22.960938-22.121093.40625-.824219.621094-1.734375.621094-2.652344v-5.300781c.003906-2.128906-1.125-4.101563-2.960938-5.175782-1.835937-1.078124-4.109375-1.101562-5.964844-.058593-5.910156-11.703125-8.9375-24.644531-8.832031-37.753907v-46.304687c28.488281-12.519531 55.519531-28.125 80.609375-46.527344 25.089844 18.40625 52.121094 34.007813 80.605469 46.527344zm0 0"/><path d="m355.976562 340.027344v5.300781c0 3.316406 2.6875 6 6 6s6-2.683594 6-6v-5.300781c0-3.3125-2.6875-6-6-6s-6 2.6875-6 6zm0 0"/><path d="m379.1875 351.328125c3.3125 0 6-2.683594 6-6v-5.300781c0-3.3125-2.6875-6-6-6s-6 2.6875-6 6v5.300781c0 3.316406 2.6875 6 6 6zm0 0"/><path d="m396.398438 351.328125c3.3125 0 6-2.683594 6-6v-5.300781c0-3.3125-2.6875-6-6-6s-6 2.6875-6 6v5.300781c0 3.316406 2.6875 6 6 6zm0 0"/><path d="m413.613281 351.328125c3.3125 0 6-2.683594 6-6v-5.300781c0-3.3125-2.6875-6-6-6-3.316406 0-6 2.6875-6 6v5.300781c0 3.316406 2.683594 6 6 6zm0 0"/><path d="m344.761719 334.027344c-3.3125 0-6 2.6875-6 6v5.300781c0 3.316406 2.6875 6 6 6 3.316406 0 6-2.683594 6-6v-5.300781c0-3.3125-2.683594-6-6-6zm0 0"/><path d="m327.550781 334.027344c-3.3125 0-6 2.6875-6 6v5.300781c0 3.316406 2.6875 6 6 6s6-2.683594 6-6v-5.300781c0-3.3125-2.6875-6-6-6zm0 0"/><path d="m310.339844 334.027344c-3.3125 0-6 2.6875-6 6v5.300781c0 3.316406 2.6875 6 6 6s6-2.683594 6-6v-5.300781c0-3.3125-2.6875-6-6-6zm0 0"/></g></svg>