<svg id="Capa_1" enable-background="new 0 0 512 512" height="512" viewBox="0 0 512 512" width="512" xmlns="http://www.w3.org/2000/svg"><g><path d="m464 321c-8.284 0-15 6.716-15 15v48c0 8.284 6.716 15 15 15s15-6.716 15-15v-48c0-8.284-6.716-15-15-15z" fill="#ff2929"/><path d="m48 321c-8.284 0-15 6.716-15 15v48c0 8.284 6.716 15 15 15s15-6.716 15-15v-48c0-8.284-6.716-15-15-15z" fill="#ff7038"/><path d="m512 384v113c0 8.28-6.72 15-15 15h-482c-8.28 0-15-6.72-15-15v-113c0-8.28 6.72-15 15-15h482c8.28 0 15 6.72 15 15z" fill="#9d9bdf"/><path d="m512 384v113c0 8.28-6.72 15-15 15h-241v-143h241c8.28 0 15 6.72 15 15z" fill="#5e69e2"/><path d="m399 15v497h-286v-497c0-8.28 6.72-15 15-15h256c8.28 0 15 6.72 15 15z" fill="#e0eaef"/><path d="m399 15v497h-143v-512h128c8.28 0 15 6.72 15 15z" fill="#cce0e5"/><path d="m335 80c0 8.28-6.72 15-15 15h-128c-8.28 0-15-6.72-15-15s6.72-15 15-15h128c8.28 0 15 6.72 15 15z" fill="#cce0e5"/><path d="m335 80c0 8.28-6.72 15-15 15h-64v-30h64c8.28 0 15 6.72 15 15z" fill="#b3d1d6"/><path d="m216 129h-16c-8.284 0-15 6.716-15 15s6.716 15 15 15h16c8.284 0 15-6.716 15-15s-6.716-15-15-15z" fill="#cce0e5"/><path d="m312 129h-16c-8.284 0-15 6.716-15 15s6.716 15 15 15h16c8.284 0 15-6.716 15-15s-6.716-15-15-15z" fill="#b3d1d6"/><path d="m216 193h-16c-8.284 0-15 6.716-15 15s6.716 15 15 15h16c8.284 0 15-6.716 15-15s-6.716-15-15-15z" fill="#cce0e5"/><path d="m312 193h-16c-8.284 0-15 6.716-15 15s6.716 15 15 15h16c8.284 0 15-6.716 15-15s-6.716-15-15-15z" fill="#b3d1d6"/><path d="m216 257h-16c-8.284 0-15 6.716-15 15s6.716 15 15 15h16c8.284 0 15-6.716 15-15s-6.716-15-15-15z" fill="#cce0e5"/><path d="m312 257h-16c-8.284 0-15 6.716-15 15s6.716 15 15 15h16c8.284 0 15-6.716 15-15s-6.716-15-15-15z" fill="#b3d1d6"/><path d="m216 321h-16c-8.284 0-15 6.716-15 15s6.716 15 15 15h16c8.284 0 15-6.716 15-15s-6.716-15-15-15z" fill="#cce0e5"/><path d="m312 321h-16c-8.284 0-15 6.716-15 15s6.716 15 15 15h16c8.284 0 15-6.716 15-15s-6.716-15-15-15z" fill="#b3d1d6"/><path d="m327 432v80h-142v-80c0-8.28 6.72-15 15-15h112c8.28 0 15 6.72 15 15z" fill="#0a789b"/><path d="m327 432v80h-71v-95h56c8.28 0 15 6.72 15 15z" fill="#08475e"/></g></svg>