<svg id="Capa_1" enable-background="new 0 0 512.015 512.015" height="512" viewBox="0 0 512.015 512.015" width="512" xmlns="http://www.w3.org/2000/svg"><g><g><g><g><g><path d="m317.018 16.008c-24.81 0-45 20.19-45 45s20.19 45 45 45 45-20.19 45-45-20.19-45-45-45z" fill="#fed843"/></g></g></g></g><g><g><path d="m390.018 194.508-13 31.5h-120l-17-30.5 17-29.5c0-33.15 26.99-60 60-60 33.08 0 60 26.92 60 60z" fill="#fed843"/></g></g><path d="m317.018 106.008v-90c24.81 0 45 20.19 45 45s-20.19 45-45 45z" fill="#fabe2c"/><path d="m507.628 305.597-42.43 42.43c-55.1 55.1-105.6 61.65-148.18 61.75-6.71.02-13.22-.12-19.52-.26-54.73-1.22-88.51 1.5-119.28 77.14-2.3 5.65-7.8 9.35-13.9 9.35h-149.3c-13.31 0-20.03-16.13-10.64-25.57l151.78-152.78c38.14-38.14 90.83-59.31 144.59-58.11 5.91.13 11.37.26 16.27.24 8.34-.03 15.1-.44 19.87-1.87 25.39-7.64 52.02 8.24 57.12 34.62-19.5 13.95-31.8 24.88-64.16 26.81-.06 0-.12.01-.19.01-3.67.17-7.97.27-12.64.31-5.49.05-11.49.01-17.57-.13-.01 0-.02 0-.04-.01 0 0 0 0-.01 0-10.16-.22-18.2 9.72-14.35 20.54 2.04 5.73 7.59 9.46 13.67 9.46h.04c5.47.13 11.92.19 18.26.14 4.99-.03 9.91-.14 14.21-.35h.01.01c27.75-1.11 50.02-10.06 70.12-25.02 35.84-26.68 46.77-29.85 77.27-44.7 9.63-4.69 21.25-2.92 28.84 4.64l.15.15c5.849 5.86 5.849 15.35 0 21.21z" fill="#ffd9b3"/><path d="m329.658 319.358c-3.67.17-7.97.27-12.64.31v-59.88c8.34-.03 15.1-.44 19.87-1.87 25.39-7.64 52.02 8.24 57.12 34.62-19.5 13.95-31.8 24.88-64.16 26.81-.06-.001-.12.01-.19.01z" fill="#fb9"/><path d="m507.628 305.597-42.43 42.43c-55.1 55.1-105.6 61.65-148.18 61.75v-60.11c4.99-.03 9.91-.14 14.21-.35h.01.01c27.75-1.11 50.02-10.06 70.12-25.02 35.84-26.68 46.77-29.85 77.27-44.7 9.63-4.69 21.25-2.92 28.84 4.64l.15.15c5.849 5.86 5.849 15.35 0 21.21z" fill="#fb9"/><g><path d="m257.018 166.008v60h-105c-8.28 0-15-6.72-15-15v-45c0-33.08 26.92-60 60-60s60 26.919 60 60z" fill="#9ef"/></g><g><path d="m197.018 16.008c-24.81 0-45 20.19-45 45s20.19 45 45 45 45-20.19 45-45-20.19-45-45-45z" fill="#9ef"/></g><path d="m197.018 106.008v-90c24.81 0 45 20.19 45 45s-20.19 45-45 45z" fill="#6cf"/><path d="m257.018 166.008v60h-60v-120c33.08 0 60 26.919 60 60z" fill="#6cf"/><path d="m390.018 194.508-13 31.5h-60v-120c33.08 0 60 26.92 60 60z" fill="#fabe2c"/><g><g><g><path d="m497.018 166.008v45c0 8.28-6.72 15-15 15h-105v-60c0-33.08 26.92-60 60-60s60 26.919 60 60z" fill="#97de3d"/></g></g></g><g><g><g><g><path d="m437.018 16.008c-24.81 0-45 20.19-45 45s20.19 45 45 45 45-20.19 45-45-20.19-45-45-45z" fill="#97de3d"/></g></g></g></g><g fill="#59c36a"><path d="m437.018 106.008v-90c24.81 0 45 20.19 45 45s-20.19 45-45 45z"/><path d="m497.018 166.008v45c0 8.28-6.72 15-15 15h-45v-120c33.08 0 60 26.919 60 60z"/></g></g></svg>