<svg height="512pt" viewBox="0 0 512 512" width="512pt" xmlns="http://www.w3.org/2000/svg"><path d="m375.429688 119.433594c0 65.960937-53.46875 119.429687-119.425782 119.429687-65.960937 0-119.429687-53.46875-119.429687-119.429687 0-65.957032 53.46875-119.4257815 119.429687-119.4257815 65.957032 0 119.425782 53.4687495 119.425782 119.4257815zm0 0" fill="#00d66a"/><path d="m375.4375 119.445312c0 65.945313-53.472656 119.421876-119.441406 119.421876v-238.867188c65.96875 0 119.441406 53.476562 119.441406 119.445312zm0 0" fill="#00b85e"/><path d="m139.152344 310.894531c0 29.726563-24.097656 53.824219-53.820313 53.824219-29.722656 0-53.820312-24.097656-53.820312-53.824219 0-29.722656 24.097656-53.820312 53.820312-53.820312 29.722657 0 53.820313 24.097656 53.820313 53.820312zm0 0" fill="#f9bcaa"/><path d="m84.683594 364.71875c-47.050782.351562-84.683594 39.351562-84.683594 86.402344v45.878906c0 8.285156 6.714844 15 15 15h140.664062c8.285157 0 15-6.714844 15-15v-46.949219c0-47.34375-38.554687-85.683593-85.980468-85.332031zm0 0" fill="#ff7579"/><path d="m139.15625 310.898438c0 29.71875-24.097656 53.820312-53.828125 53.820312v-107.648438c29.730469 0 53.828125 24.101563 53.828125 53.828126zm0 0" fill="#f4ab97"/><path d="m170.667969 450.046875v46.953125c0 8.28125-6.722657 15-15 15h-70.339844v-147.28125c47.128906 0 85.339844 38.199219 85.339844 85.328125zm0 0" fill="#fe4a60"/><path d="m309.820312 310.894531c0 29.726563-24.097656 53.824219-53.824218 53.824219-29.722656 0-53.820313-24.097656-53.820313-53.824219 0-29.722656 24.097657-53.820312 53.820313-53.820312 29.726562 0 53.824218 24.097656 53.824218 53.820312zm0 0" fill="#ffcfbe"/><path d="m255.351562 364.71875c-47.050781.351562-84.6875 39.351562-84.6875 86.402344v45.878906c0 8.285156 6.71875 15 15 15h140.664063c8.285156 0 15-6.714844 15-15v-46.949219c0-47.34375-38.550781-85.683593-85.976563-85.332031zm0 0" fill="#3ab4fb"/><path d="m309.824219 310.898438c0 29.71875-24.101563 53.820312-53.828125 53.820312v-107.648438c29.726562 0 53.828125 24.101563 53.828125 53.828126zm0 0" fill="#f9bcaa"/><path d="m341.332031 450.046875v46.953125c0 8.28125-6.71875 15-15 15h-70.339843v-147.28125c47.132812 0 85.339843 38.199219 85.339843 85.328125zm0 0" fill="#1d9cfd"/><path d="m480.484375 310.894531c0 29.726563-24.09375 53.824219-53.820313 53.824219-29.722656 0-53.820312-24.097656-53.820312-53.824219 0-29.722656 24.097656-53.820312 53.820312-53.820312 29.726563 0 53.820313 24.097656 53.820313 53.820312zm0 0" fill="#f4ab97"/><path d="m426.019531 364.71875c-47.050781.351562-84.6875 39.351562-84.6875 86.402344v45.878906c0 8.285156 6.71875 15 15 15h140.664063c8.285156 0 15-6.714844 15-15v-46.949219c0-47.34375-38.554688-85.683593-85.976563-85.332031zm0 0" fill="#00d66a"/><path d="m480.492188 310.898438c0 29.71875-24.101563 53.820312-53.832032 53.820312v-107.648438c29.730469 0 53.832032 24.101563 53.832032 53.828126zm0 0" fill="#e79a85"/><path d="m512 450.046875v46.953125c0 8.28125-6.71875 15-15 15h-70.339844v-147.28125c47.128906 0 85.339844 38.199219 85.339844 85.328125zm0 0" fill="#00b85e"/><path d="m237.355469 162.171875c6.472656 6.476563 17.15625 5.664063 22.605469-1.605469l48.199218-64.265625c11.902344-15.867187-12.078125-33.886719-24-18l-37.820312 50.429688-19.90625-19.902344c-14.023438-14.023437-35.253906 7.171875-21.210938 21.210937zm0 0" fill="#eff6fe"/><path d="m284.160156 78.300781-28.164062 37.554688v48.363281c1.484375-.945312 2.839844-2.152344 3.964844-3.652344l48.199218-64.265625c11.902344-15.867187-12.078125-33.886719-24-18zm0 0" fill="#d9e4ef"/></svg>