<?xml version="1.0" encoding="iso-8859-1"?>
<!-- Generator: Adobe Illustrator 19.0.0, SVG Export Plug-In . SVG Version: 6.00 Build 0)  -->
<svg version="1.1" id="Capa_1" xmlns="http://www.w3.org/2000/svg" xmlns:xlink="http://www.w3.org/1999/xlink" x="0px" y="0px"
	 viewBox="0 0 512 512" style="enable-background:new 0 0 512 512;" xml:space="preserve">
<path style="fill:#949FB3;" d="M380.055,380.055c-3.003,3.003-6.608,4.505-10.513,4.505s-7.81-1.502-10.815-4.505l-43.355-43.357
	c-6.008-6.007-6.008-15.318,0-21.327s15.32-6.008,21.329,0l43.355,43.355C386.063,364.736,386.063,374.348,380.055,380.055z"/>
<path style="fill:#8A94A8;" d="M380.055,380.055c-3.003,3.003-6.608,4.505-10.513,4.505s-7.81-1.502-10.815-4.505l-43.355-43.357
	c-6.008-6.007-6.008-15.318,0-21.327L380.055,380.055z"/>
<path style="fill:#6F7D96;" d="M333.096,57.336c-76.3-76.599-199.458-76.298-275.759,0c-76.599,76.3-76.298,199.458,0,275.757
	c76.3,76.6,199.458,76.3,275.759,0C409.694,256.796,409.393,133.636,333.096,57.336z"/>
<path style="fill:#66728B;" d="M333.096,333.094c-76.3,76.3-199.458,76.6-275.759,0c-76.298-76.298-76.599-199.457,0-275.757
	L333.096,333.094z"/>
<path style="fill:#E0E4EC;" d="M312.067,78.365c-64.585-64.585-169.119-64.585-233.704,0c-64.583,64.585-64.583,169.119,0,233.704
	c64.585,64.583,169.119,64.583,233.704,0C376.65,247.484,376.65,142.948,312.067,78.365z"/>
<path style="fill:#D1D7E3;" d="M312.067,312.067c-64.585,64.583-169.119,64.583-233.704,0c-64.583-64.585-64.583-169.119,0-233.704
	L312.067,312.067z"/>
<path style="fill:#F6B73C;" d="M433.224,369.541l-8.712,21.027L407.69,407.69l-17.122,16.822l-21.026,8.712l-10.815-10.515
	c-8.71-9.012-12.917-20.426-12.917-31.841c0-11.715,4.205-23.429,12.917-32.142c17.724-17.424,46.261-17.424,63.983,0
	L433.224,369.541z"/>
<path style="fill:#F29737;" d="M407.69,407.69l-17.122,16.822l-21.026,8.712l-10.815-10.515
	c-8.71-9.012-12.917-20.426-12.917-31.841c0-11.715,4.205-23.429,12.917-32.142L407.69,407.69z"/>
<path style="fill:#6F7D96;" d="M498.709,498.709c-17.424,17.722-45.961,17.722-63.682,0c-59.777-59.779-42.956-42.956-65.485-65.485
	l31.841-31.843l31.841-31.841c29.739,29.741,18.924,18.924,65.485,65.487C516.431,452.748,516.431,481.286,498.709,498.709z"/>
<path style="fill:#66728B;" d="M498.709,498.709c-17.424,17.722-45.961,17.722-63.682,0c-59.777-59.779-42.956-42.956-65.485-65.485
	l31.841-31.843L498.709,498.709z"/>
<path style="fill:#7984EB;" d="M195.216,165.177c-9.012,0-17.724,1.502-26.134,3.905c-36.947,11.114-63.983,45.658-63.983,86.212
	v30.039c0,8.41,6.608,15.019,15.019,15.019h150.194c8.412,0,15.019-6.61,15.019-15.019v-30.039
	C285.333,205.729,244.781,165.177,195.216,165.177z"/>
<path style="fill:#6B77E8;" d="M285.333,285.333c0,8.41-6.608,15.019-15.019,15.019H120.119c-8.412,0-15.019-6.61-15.019-15.019
	v-30.039c0-40.554,27.036-75.097,63.983-86.212L285.333,285.333z"/>
<path style="fill:#83C9FF;" d="M195.216,75.06c-33.042,0-60.078,27.034-60.078,60.078c0,33.042,27.036,60.078,60.078,60.078
	s60.078-27.036,60.078-60.078C255.294,102.094,228.258,75.06,195.216,75.06z"/>
<path style="fill:#00A5FF;" d="M195.216,195.216c-33.042,0-60.078-27.036-60.078-60.078L195.216,195.216z"/>
<g>
</g>
<g>
</g>
<g>
</g>
<g>
</g>
<g>
</g>
<g>
</g>
<g>
</g>
<g>
</g>
<g>
</g>
<g>
</g>
<g>
</g>
<g>
</g>
<g>
</g>
<g>
</g>
<g>
</g>
</svg>
