<svg id="Layer_1" enable-background="new 0 0 512 512" height="512" viewBox="0 0 512 512" width="512" xmlns="http://www.w3.org/2000/svg"><g><path d="m378.325 47.124c-33.671-30.388-79.225-47.124-128.266-47.124-43.304 0-84.935 16.85-117.225 47.446-32.284 30.59-50.756 70.603-52.012 112.665-1.156 38.658 11.361 76.667 35.245 107.026 29.528 37.535 45.556 73.412 47.52 105.278l95.27 47.143 89.556-47.143c1.046-31.261 16.677-66.77 46.603-104.123 23.369-29.168 36.238-65.803 36.238-103.157-.002-45.298-18.798-87.209-52.929-118.011z" fill="#ffda2c"/><path d="m378.325 47.124c-32.307-29.157-75.555-45.735-122.325-47.032v418.053l2.856 1.413 89.556-47.143c1.046-31.261 16.677-66.77 46.603-104.123 23.369-29.168 36.238-65.803 36.238-103.157-.001-45.298-18.797-87.209-52.928-118.011z" fill="#febf00"/><path d="m350.669 139.625-87.119-30.075c-.211-.073-.423-.121-.635-.184v95.526c.525-.156 1.048-.337 1.565-.554l87.119-36.705c5.729-2.414 9.376-8.111 9.17-14.324-.207-6.213-4.224-11.656-10.1-13.684z" fill="#ff0059"/><path d="m256 288.018c-8.286 0-15.003-6.717-15.003-15.003v-165.006c0-8.286 6.717-15.003 15.003-15.003s15.003 6.717 15.003 15.003v165.006c0 8.286-6.717 15.003-15.003 15.003z" fill="#38336b"/><path d="m256 93.005c-.028 0-.055.004-.083.004v195.004c.028 0 .055.004.083.004 8.286 0 15.003-6.717 15.003-15.003v-165.005c0-8.286-6.717-15.004-15.003-15.004z" fill="#2e2654"/><path d="m263.368 274.106h-14.165c-40.566 0-76.28 20.746-97.13 52.203 6.751 16.059 10.613 31.505 11.513 46.106l95.27 47.143 89.556-47.143c.497-14.856 4.295-30.673 11.349-47.189-20.949-30.846-56.297-51.12-96.393-51.12z" fill="#90d960"/><g><path d="m263.368 274.106h-7.368v144.039l2.856 1.413 89.556-47.143c.497-14.856 4.295-30.673 11.349-47.189-20.949-30.846-56.297-51.12-96.393-51.12z" fill="#61c27c"/></g><path d="m190.877 450.492v46.505c0 8.286 6.717 15.003 15.003 15.003h100.237c8.286 0 15.003-6.717 15.003-15.003v-46.505z" fill="#38336b"/><path d="m306.117 512c8.286 0 15.003-6.717 15.003-15.003v-46.505h-65.12v61.508z" fill="#2e2654"/><path d="m348.411 372.415h-184.825v73.678c0 8.286 6.717 15.003 15.003 15.003h154.819c8.286 0 15.003-6.717 15.003-15.003z" fill="#5ecbf1"/><path d="m256 372.415v88.681h77.408c8.286 0 15.003-6.717 15.003-15.003v-73.678z" fill="#4793ff"/></g></svg>