<svg id="Capa_1" enable-background="new 0 0 512 512" height="512" viewBox="0 0 512 512" width="512" xmlns="http://www.w3.org/2000/svg"><g><path d="m376.771 146.582-12.92 7.61-68.51-116.29c-8.71-14.79-24.04-22.25-39.34-22.09-14.66.14-29.28 7.3-37.98 21.74l-61.89 102.81c-4.27 7.09-1.98 16.31 5.11 20.59l51.41 30.94c7.09 4.28 16.31 1.99 20.58-5.11l22.77-37.82.15-.25 30.16 51.18-12.92 7.62c-11.48 6.76-9.06 24.11 3.86 27.44l82.16 21.23c8.02 2.07 16.2-2.75 18.27-10.77l21.23-82.16c3.33-12.91-10.66-23.44-22.14-16.67z" fill="#97de3d"/><path d="m398.911 163.252-21.23 82.16c-2.07 8.02-10.25 12.84-18.27 10.77l-82.16-21.23c-12.92-3.33-15.34-20.68-3.86-27.44l12.92-7.62-30.16-51.18-.15.25v-133.15c15.3-.16 30.63 7.3 39.34 22.09l68.51 116.29 12.92-7.61c11.48-6.77 25.47 3.76 22.14 16.67z" fill="#59c36a"/><path d="m512 420.759c0-7.936-2.098-15.743-6.066-22.576-4.442-7.648-53.018-91.298-60.019-103.352l-.001-.001c-3.684-6.342-11.434-9.122-18.36-6.467-2.239.865-.894.377-54.053 31.109-7.169 4.154-9.613 13.344-5.451 20.511l20.775 35.819h-56.905l-.078-14.702c-.071-13.319-16.249-19.937-25.635-10.498l-59.842 60.158c-5.838 5.869-5.817 15.372.057 21.213l60.158 59.841c9.42 9.373 25.647 2.71 25.578-10.713l-.08-15.343h134.922c24.813.001 45-20.186 45-44.999z" fill="#59c36a"/><path d="m45 465.759h120c8.284 0 15-6.716 15-15v-60c0-8.284-6.716-15-15-14.957h-42.35l29.002-50.663 12.795 7.514c11.481 6.745 25.473-3.786 22.113-16.709l-21.354-82.122c-2.085-8.018-10.279-12.827-18.293-10.742l-82.122 21.354c-12.897 3.354-15.326 20.694-3.82 27.452l13.071 7.677-68.103 118.842c-3.885 6.779-5.939 14.509-5.939 22.354 0 24.813 20.187 45 45 45z" fill="#97de3d"/></g></svg>