<svg id="Capa_1" enable-background="new 0 0 512 512" height="512" viewBox="0 0 512 512" width="512" xmlns="http://www.w3.org/2000/svg"><g><g><path d="m334.001 60h-156c-9.47 0-16.56 8.68-14.71 17.94l13.18 65.88c4.19 20.96 22.74 36.18 44.12 36.18h70.82c21.38 0 39.93-15.22 44.12-36.18l13.18-65.88c1.86-9.29-5.26-17.94-14.71-17.94z" fill="#cef"/></g><path d="m348.711 77.94-13.18 65.88c-4.19 20.96-22.74 36.18-44.12 36.18h-35.41v-120h78c9.45 0 16.57 8.65 14.71 17.94z" fill="#b3d9ff"/><g><path d="m446.991 432.33-26.02-418.26c-.49-7.91-7.05-14.07-14.97-14.07h-60c-7.15 0-13.31 5.05-14.71 12.06l-25.18 125.88c-1.4 6.99-7.58 12.06-14.7 12.06h-70.82c-7.12 0-13.3-5.07-14.7-12.06l-25.18-125.88c-1.4-7.01-7.56-12.06-14.71-12.06h-60c-7.92 0-14.48 6.16-14.97 14.07l-26.02 418.25c-2.7 43.14 31.66 79.68 74.86 79.68h232.26c43.22 0 77.54-36.55 74.86-79.67z" fill="#e6fbff"/></g><path d="m372.131 512h-116.13v-362h35.41c7.12 0 13.3-5.07 14.7-12.06l25.18-125.88c1.4-7.01 7.56-12.06 14.71-12.06h60c7.92 0 14.48 6.16 14.97 14.07l26.02 418.26c2.68 43.12-31.64 79.67-74.86 79.67z" fill="#cef"/><path d="m376.011 422c-.01 0-.01 0-.02 0h-83.78l4.4 4.39c5.85 5.86 5.85 15.36 0 21.22-5.86 5.86-15.36 5.85-21.22 0l-19.39-19.4-10.6-10.6c-5.8-5.78-5.91-15.32 0-21.22l10.6-10.6 19.39-19.4c5.86-5.85 15.36-5.85 21.22 0 5.85 5.86 5.85 15.36 0 21.22l-4.4 4.39h55.76l-9.42-14.13c-4.59-6.9-2.73-16.21 4.16-20.8 6.89-4.6 16.21-2.74 20.8 4.16l24.91 37.36c.01.02.02.04.04.06 7.01 11.23-1.47 23.35-12.45 23.35z" fill="#97de3d"/><path d="m376.011 422c-.01 0-.01 0-.02 0h-83.78l4.4 4.39c5.85 5.86 5.85 15.36 0 21.22-5.86 5.86-15.36 5.85-21.22 0l-19.39-19.4v-42.42l19.39-19.4c5.86-5.85 15.36-5.85 21.22 0 5.85 5.86 5.85 15.36 0 21.22l-4.4 4.39h55.76l-9.42-14.13c-4.59-6.9-2.73-16.21 4.16-20.8 6.89-4.6 16.21-2.74 20.8 4.16l24.91 37.36c.01.02.02.04.04.06 7.01 11.23-1.47 23.35-12.45 23.35z" fill="#59c36a"/><path d="m345.721 288.15-8.35 41.59c-1.64 8.14-9.56 13.39-17.66 11.76l-41.59-8.35c-19.48-3.91-13.54-33.33 5.9-29.42l6.09 1.23-33.97-51.04-.14.21-11.99 17.91c-4.6 6.89-13.92 8.73-20.8 4.13-6.89-4.61-8.74-13.93-4.13-20.81l24.62-36.8c2.93-4.39 7.61-6.61 12.3-6.65 4.82-.06 9.66 2.17 12.66 6.68l46.42 69.74 1.23-6.09c3.91-19.47 33.31-13.54 29.41 5.91z" fill="#97de3d"/><path d="m345.721 288.15-8.35 41.59c-1.64 8.14-9.56 13.39-17.66 11.76l-41.59-8.35c-19.48-3.91-13.54-33.33 5.9-29.42l6.09 1.23-33.97-51.04-.14.21v-42.22c4.82-.06 9.66 2.17 12.66 6.68l46.42 69.74 1.23-6.09c3.91-19.47 33.31-13.54 29.41 5.91z" fill="#59c36a"/><path d="m217.472 304.267c-1.561-7.898-9.218-13.402-17.629-11.811l-41.618 8.24c-19.444 3.849-13.654 33.298 5.826 29.429l6.095-1.207c-38.579 57.628-45.987 68.682-46.739 69.839-6.434 9.938.709 23.132 12.579 23.132.008 0 .015-.001.023-.001l58.207.112h.029c8.27 0 14.983-6.697 14.999-14.971.016-8.284-6.687-15.013-14.972-15.029l-30.216-.058 31.019-46.334 1.207 6.095c3.865 19.525 33.269 13.569 29.428-5.827z" fill="#97de3d"/></g></svg>