<svg id="Capa_1" enable-background="new 0 0 512 512" height="512" viewBox="0 0 512 512" width="512" xmlns="http://www.w3.org/2000/svg" xmlns:xlink="http://www.w3.org/1999/xlink"><linearGradient id="SVGID_1_" gradientUnits="userSpaceOnUse" x1="256" x2="256" y1="512" y2="0"><stop offset="0" stop-color="#ffbef9"/><stop offset="1" stop-color="#fff1ff"/></linearGradient><linearGradient id="SVGID_2_" gradientUnits="userSpaceOnUse" x1="256" x2="256" y1="389.5" y2="122.5"><stop offset="0" stop-color="#ff81ff"/><stop offset="1" stop-color="#a93aff"/></linearGradient><g><g><circle cx="256" cy="256" fill="url(#SVGID_1_)" r="256"/></g><g><g><g><g><path d="m398.118 371.7h-284.236c-4.975 0-8.882 3.915-8.882 8.9 0 4.983 3.908 8.9 8.882 8.9h284.235c4.975 0 8.882-3.917 8.882-8.9.001-4.985-3.907-8.9-8.881-8.9zm-239.824-44.5c0-4.985 3.908-8.9 8.882-8.9h35.529c4.975 0 8.882 3.916 8.882 8.9v26.7h35.529v-222.5c0-4.919-3.973-8.9-8.882-8.9h-106.587c-4.91 0-8.882 3.98-8.882 8.9v222.5h35.529zm8.882-169.1h35.529c4.91 0 8.882 3.98 8.882 8.9s-3.973 8.9-8.882 8.9h-35.529c-4.91 0-8.882-3.98-8.882-8.9s3.973-8.9 8.882-8.9zm0 35.6h35.529c4.91 0 8.882 3.98 8.882 8.9s-3.973 8.9-8.882 8.9h-35.529c-4.91 0-8.882-3.98-8.882-8.9s3.973-8.9 8.882-8.9zm0 35.6h35.529c4.91 0 8.882 3.981 8.882 8.9s-3.973 8.9-8.882 8.9h-35.529c-4.91 0-8.882-3.981-8.882-8.9s3.973-8.9 8.882-8.9zm0 35.6h35.529c4.91 0 8.882 3.981 8.882 8.9s-3.973 8.9-8.882 8.9h-35.529c-4.91 0-8.882-3.981-8.882-8.9s3.973-8.9 8.882-8.9zm133.236 62.3c0-4.985 3.908-8.9 8.882-8.9h35.529c4.975 0 8.882 3.916 8.882 8.9v26.7h35.53v-151.3c0-4.919-3.973-8.9-8.882-8.9h-106.588c-4.91 0-8.882 3.98-8.882 8.9v151.3h35.529zm8.882-97.9h35.529c4.91 0 8.882 3.981 8.882 8.9s-3.973 8.9-8.882 8.9h-35.529c-4.91 0-8.882-3.981-8.882-8.9s3.973-8.9 8.882-8.9zm0 35.6h35.529c4.91 0 8.882 3.981 8.882 8.9s-3.973 8.9-8.882 8.9h-35.529c-4.91 0-8.882-3.981-8.882-8.9s3.973-8.9 8.882-8.9z" fill="url(#SVGID_2_)"/></g></g></g></g></g></svg>